<svg width="33" height="29" viewBox="0 0 33 29" fill="none" xmlns="http://www.w3.org/2000/svg">
<path d="M16.6 13.68C18.1733 13.9733 19.4667 14.76 20.48 16.04C21.4933 17.32 22 18.7867 22 20.44C22 21.9333 21.6267 23.2533 20.88 24.4C20.16 25.52 19.1067 26.4 17.72 27.04C16.3333 27.68 14.6933 28 12.8 28H0.76V0.0799994H12.28C14.1733 0.0799994 15.8 0.386666 17.16 1C18.5467 1.61333 19.5867 2.46667 20.28 3.56C21 4.65333 21.36 5.89333 21.36 7.28C21.36 8.90667 20.92 10.2667 20.04 11.36C19.1867 12.4533 18.04 13.2267 16.6 13.68ZM6.36 11.6H11.48C12.8133 11.6 13.84 11.3067 14.56 10.72C15.28 10.1067 15.64 9.24 15.64 8.12C15.64 7 15.28 6.13333 14.56 5.52C13.84 4.90667 12.8133 4.6 11.48 4.6H6.36V11.6ZM12 23.44C13.36 23.44 14.4133 23.12 15.16 22.48C15.9333 21.84 16.32 20.9333 16.32 19.76C16.32 18.56 15.92 17.6267 15.12 16.96C14.32 16.2667 13.24 15.92 11.88 15.92H6.36V23.44H12Z" fill="#00FF6B"/>
<path d="M28.9431 28.28C27.9298 28.28 27.0898 27.9733 26.4231 27.36C25.7831 26.72 25.4631 25.9333 25.4631 25C25.4631 24.0667 25.7831 23.2933 26.4231 22.68C27.0898 22.04 27.9298 21.72 28.9431 21.72C29.9298 21.72 30.7431 22.04 31.3831 22.68C32.0231 23.2933 32.3431 24.0667 32.3431 25C32.3431 25.9333 32.0231 26.72 31.3831 27.36C30.7431 27.9733 29.9298 28.28 28.9431 28.28Z" fill="white"/>
</svg>
