<svg width="453" height="411" viewBox="0 0 453 411" fill="none" xmlns="http://www.w3.org/2000/svg">
<path d="M144.983 16.838C103.452 48.6698 131.378 104.912 87.6993 135.312C58.6015 155.557 27.3556 143.709 9.19393 170.659C-1.09118 185.956 -0.440215 203.272 0.471124 213.297C9.58451 311.07 96.2919 436.054 216.979 406.11C337.666 376.166 282.726 296.749 366.504 267.782C400.939 255.869 437.979 246.17 450.672 186.282C458.484 149.438 446.767 94.6273 413.503 81.4129C382.648 69.1749 362.924 101.983 327.707 90.2008C292.36 78.3534 298.804 39.4913 259.552 15.5361C227.199 -4.18787 175.513 -6.59641 144.983 16.838Z" fill="#00FF6B" fill-opacity="0.28"/>
<path d="M367.61 312.828C354.461 328.19 349.579 345.896 355.893 358.33C357.195 360.933 359.343 364.579 363.119 365.881C380.499 371.87 410.704 323.243 398.987 311.461C395.016 307.49 388.701 304.17 382.517 304.691C373.99 305.342 368.782 311.396 367.61 312.828Z" fill="#00FF6B" fill-opacity="0.59"/>
<path opacity="0.79" d="M84.3143 278.002C121.308 278.002 151.298 249.032 151.298 213.297C151.298 177.561 121.308 148.592 84.3143 148.592C47.3204 148.592 17.3309 177.561 17.3309 213.297C17.3309 249.032 47.3204 278.002 84.3143 278.002Z" fill="url(#paint0_radial)"/>
<path d="M319.505 170.268C319.505 170.268 329.399 167.86 348.277 148.982C367.155 130.104 398.921 113.505 410.574 151.391C417.474 173.784 412.592 224.493 390.003 229.831C374.836 233.476 358.823 221.303 348.733 211.214C338.643 201.124 319.44 196.111 319.44 196.111V170.268H319.505Z" fill="#00FF6B"/>
<path d="M319.505 170.268V196.176C319.505 196.176 338.708 201.189 348.798 211.279C351.857 214.338 355.503 217.658 359.473 220.587C362.273 217.202 367.741 209.847 369.628 204.444C378.221 179.056 373.404 150.089 351.532 145.858C350.425 146.899 349.319 147.941 348.277 148.982C329.399 167.86 319.505 170.268 319.505 170.268Z" fill="#07AD5A"/>
<path opacity="0.8" d="M329.009 174.304C329.009 174.304 361.231 165.256 382.713 143.775" stroke="#442753" stroke-width="4" stroke-miterlimit="10" stroke-linecap="round" stroke-linejoin="round"/>
<path opacity="0.8" d="M329.92 181.204C329.92 181.204 376.919 175.02 394.69 167.274" stroke="#442753" stroke-width="4" stroke-miterlimit="10" stroke-linecap="round" stroke-linejoin="round"/>
<path opacity="0.8" d="M330.115 194.224C330.115 194.224 356.414 200.668 382.713 216.226" stroke="#442753" stroke-width="4" stroke-miterlimit="10" stroke-linecap="round" stroke-linejoin="round"/>
<path opacity="0.8" d="M330.115 189.016C330.115 189.016 375.813 193.052 394.69 193.052" stroke="#442753" stroke-width="4" stroke-miterlimit="10" stroke-linecap="round" stroke-linejoin="round"/>
<path d="M224.465 103.545C224.465 103.545 227.525 91.1773 232.602 86.2951C237.68 81.4129 246.077 79.9808 263.718 83.2356C281.294 86.4904 294.118 92.4792 294.118 99.3142C294.118 102.569 281.359 113.57 278.234 113.57C275.11 113.57 233.318 102.374 224.465 103.545Z" fill="#00FF6B"/>
<path d="M253.823 92.349C238.721 92.349 232.016 99.0538 229.478 103.676C243.668 105.108 275.565 113.57 278.234 113.57C280.578 113.57 288.519 107.191 292.165 102.764C286.176 95.5387 268.795 92.349 253.823 92.349Z" fill="#07AD5A"/>
<path opacity="0.8" d="M239.567 100.16C239.567 100.16 242.887 92.349 249.462 89.0942" stroke="#442753" stroke-width="4" stroke-miterlimit="10" stroke-linecap="round" stroke-linejoin="round"/>
<path opacity="0.8" d="M264.694 92.349C257.208 94.6273 251.35 102.764 251.35 102.764" stroke="#442753" stroke-width="4" stroke-miterlimit="10" stroke-linecap="round" stroke-linejoin="round"/>
<path opacity="0.8" d="M264.694 104.522C264.694 104.522 270.553 97.4915 280.317 97.4915" stroke="#442753" stroke-width="4" stroke-miterlimit="10" stroke-linecap="round" stroke-linejoin="round"/>
<path d="M224.465 103.545C224.465 103.545 227.525 91.1773 232.602 86.2951C237.68 81.4129 246.077 79.9808 263.718 83.2356C281.294 86.4904 294.118 92.4792 294.118 99.3142C294.118 102.569 281.359 113.57 278.234 113.57C275.11 113.57 233.318 102.374 224.465 103.545Z" stroke="#0F7C46" stroke-width="6" stroke-miterlimit="10" stroke-linecap="round" stroke-linejoin="round"/>
<path d="M319.505 170.268C319.505 170.268 329.399 167.86 348.277 148.982C367.155 130.104 398.921 113.505 410.574 151.391C417.474 173.784 412.592 224.493 390.003 229.831C374.836 233.476 358.823 221.303 348.733 211.214C338.643 201.124 319.44 196.111 319.44 196.111V170.268H319.505Z" stroke="#0F7C46" stroke-width="6" stroke-miterlimit="10" stroke-linecap="round" stroke-linejoin="round"/>
<path d="M207.475 271.492C207.475 271.492 223.424 291.997 231.561 300.134C239.698 308.271 303.166 292.974 310.326 285.813C317.487 278.653 319.44 262.379 281.684 253.265C281.749 253.265 247.574 281.777 207.475 271.492Z" fill="#00FF6B"/>
<path d="M224.335 292.193C248.746 291.216 293.662 287.441 313.907 272.794C311.758 265.959 303.101 258.473 281.684 253.33C281.684 253.33 249.657 280.02 211.251 272.403C210.6 272.989 210.014 273.51 209.493 274.096C212.553 277.937 218.737 285.683 224.335 292.193Z" fill="#07AD5A"/>
<path opacity="0.8" d="M233.774 281.907C233.774 281.907 242.236 288.352 245.426 294.861" stroke="#442753" stroke-width="4" stroke-miterlimit="10" stroke-linecap="round" stroke-linejoin="round"/>
<path opacity="0.8" d="M249.462 281.126C249.462 281.126 256.622 286.659 259.617 292.453" stroke="#442753" stroke-width="4" stroke-miterlimit="10" stroke-linecap="round" stroke-linejoin="round"/>
<path opacity="0.8" d="M260.984 277.025C260.984 277.025 268.991 280.671 273.678 288.352" stroke="#442753" stroke-width="4" stroke-miterlimit="10" stroke-linecap="round" stroke-linejoin="round"/>
<path opacity="0.8" d="M270.878 273.64C270.878 273.64 285.265 277.741 288.194 283.535" stroke="#442753" stroke-width="4" stroke-miterlimit="10" stroke-linecap="round" stroke-linejoin="round"/>
<path opacity="0.8" d="M282.726 267.782C282.726 267.782 298.023 271.297 301.018 277.09" stroke="#442753" stroke-width="4" stroke-miterlimit="10" stroke-linecap="round" stroke-linejoin="round"/>
<path d="M207.475 271.492C207.475 271.492 223.424 291.997 231.561 300.134C239.698 308.271 303.166 292.974 310.326 285.813C317.487 278.653 319.44 262.379 281.684 253.265C281.749 253.265 247.574 281.777 207.475 271.492Z" stroke="#0F7C46" stroke-width="6" stroke-miterlimit="10" stroke-linecap="round" stroke-linejoin="round"/>
<path d="M66.2828 204.444C66.2828 204.444 70.1886 222.085 84.2492 220.718C94.7296 219.741 97.2684 197.674 81.5803 189.276C65.8272 180.944 66.2828 204.444 66.2828 204.444Z" fill="#F4E834"/>
<path d="M66.2828 204.444C66.2828 204.444 70.1886 222.085 84.2492 220.718C94.7296 219.741 97.2684 197.674 81.5803 189.276C65.8272 180.944 66.2828 204.444 66.2828 204.444Z" fill="#F4E834" stroke="#D3A548" stroke-width="6" stroke-miterlimit="10"/>
<path d="M78.5208 209.781C82.1878 209.781 85.1606 206.809 85.1606 203.142C85.1606 199.475 82.1878 196.502 78.5208 196.502C74.8538 196.502 71.881 199.475 71.881 203.142C71.881 206.809 74.8538 209.781 78.5208 209.781Z" fill="#F4E834"/>
<path opacity="0.66" d="M78.5208 209C81.7564 209 84.3794 206.377 84.3794 203.142C84.3794 199.906 81.7564 197.283 78.5208 197.283C75.2852 197.283 72.6622 199.906 72.6622 203.142C72.6622 206.377 75.2852 209 78.5208 209Z" fill="#F99338"/>
<path d="M329.399 176.518C322.044 126.915 272.376 93.1301 218.542 101.137C208.452 102.634 198.948 105.498 190.225 109.404C180.005 114.026 167.897 111.422 160.541 102.96C157.287 99.184 154.227 95.8641 152.6 94.432C147.978 90.3961 142.64 86.2951 136.521 82.7148C133.462 80.8921 130.207 79.1996 126.757 77.7024C123.307 76.2052 119.661 74.8382 115.886 73.7967C114.909 73.5363 113.998 73.2759 113.021 73.0155C112.045 72.8203 111.069 72.5599 110.092 72.3646C109.116 72.1693 108.074 72.0391 107.098 71.8438C106.121 71.6485 105.08 71.5834 104.038 71.4532C99.9373 70.9976 95.7711 70.9325 91.5399 71.3881C87.3087 71.7787 83.0775 72.6901 78.9765 74.1873L78.1953 74.4477L77.8047 74.5779L77.6095 74.6429C77.0887 74.8382 77.4142 74.708 77.284 74.7731L77.2189 74.8382L75.917 75.4241L74.6151 76.0099L73.9641 76.3354C73.7688 76.4656 73.4433 76.5958 73.2481 76.726C72.2065 77.2468 71.2301 77.8326 70.2537 78.3534C69.2772 78.9393 68.431 79.5251 67.5196 80.111C64.0045 82.5846 60.7497 85.3837 57.9506 88.4432C55.1515 91.5678 52.6127 94.8877 50.4646 98.2727C48.3164 101.723 46.4287 105.303 44.8664 109.013L44.606 109.729L44.3456 110.446L43.8248 111.747C43.6946 112.138 43.4994 112.659 43.3041 113.18L42.8484 114.612C42.5229 115.588 42.3276 116.499 42.0022 117.476C41.7418 118.452 41.5465 119.364 41.2861 120.34C39.5936 127.956 39.3332 135.442 39.9842 142.473C40.7002 149.438 42.2625 155.947 44.2805 161.611C46.2985 167.339 48.7721 172.286 51.2457 176.518C53.7194 180.749 56.193 184.199 58.3412 186.933C59.3827 188.3 60.4242 189.472 61.2705 190.513C61.7261 191.034 62.1167 191.49 62.5073 191.88C60.8148 196.502 58.6015 205.615 64.3951 211.344C69.7329 216.682 71.4254 196.567 82.9473 194.744C86.5927 194.159 87.504 189.341 83.7936 185.631C80.669 182.506 73.2481 181.986 66.6734 186.607C66.6083 186.477 66.4781 186.412 66.413 186.282C65.6319 185.305 64.7205 184.134 63.8092 182.832C61.9214 180.228 59.7082 176.908 57.56 172.937C55.4119 168.966 53.3288 164.345 51.7014 159.072C50.0089 153.799 48.8372 147.941 48.4466 141.757C48.0561 135.507 48.5768 128.933 50.2693 122.423C50.5297 121.642 50.725 120.796 50.9854 120.015C51.2457 119.233 51.5061 118.387 51.7665 117.606L52.2222 116.434C52.3524 116.044 52.4826 115.653 52.6778 115.263L53.1986 113.961L53.459 113.44L53.7194 112.854C55.1515 109.729 56.9091 106.67 58.8619 103.741C60.8148 100.811 63.0931 98.0774 65.5017 95.6037C67.9753 93.1301 70.6442 90.9168 73.5084 89.0942C74.2245 88.6385 74.9405 88.1828 75.6566 87.7923C76.3727 87.4668 77.0236 87.0762 77.7397 86.7507C77.935 86.6856 78.0651 86.5554 78.2604 86.4903L78.9114 86.23L80.2784 85.7092L81.5803 85.1884L81.7105 85.1233L82.036 85.0582L82.6218 84.863C85.8115 83.8214 89.1314 83.2356 92.4513 83.0403C95.7711 82.845 99.1561 82.9752 102.476 83.4959C103.322 83.6261 104.103 83.7563 104.95 83.8865C105.796 84.0818 106.577 84.212 107.423 84.4073C108.204 84.6026 109.051 84.7978 109.832 85.0582C110.613 85.2535 111.394 85.5139 112.175 85.7743C115.3 86.8158 118.359 88.0526 121.224 89.4196C124.088 90.8517 126.822 92.349 129.426 94.0414C134.633 97.3613 139.125 101.072 143.096 104.782C144.332 105.889 146.481 108.493 148.954 111.552C156.115 120.47 156.505 132.969 149.866 142.277C136.977 160.374 130.793 182.637 134.178 205.485C141.533 255.088 191.201 288.873 245.035 280.866C298.87 272.859 336.755 226.186 329.399 176.518Z" fill="#00FF6B"/>
<path d="M155.203 247.667C155.203 247.667 155.789 250.271 165.684 246.56C175.578 242.85 183.846 230.547 183.846 230.547L160.671 239.27L148.499 241.418L155.203 247.667Z" fill="#12CC9B"/>
<path d="M153.055 97.4915C153.055 97.4915 161.127 114.221 174.732 117.476C188.207 120.731 195.758 109.86 207.54 104.457C197.32 106.475 185.017 112.268 185.017 112.268C185.017 112.268 169.264 114.351 158.914 102.699C148.564 91.1122 153.055 97.4915 153.055 97.4915Z" fill="#12CC9B"/>
<g opacity="0.76">
<path opacity="0.76" d="M329.399 176.518C323.345 135.963 289.04 106.019 247.249 100.811C275.24 113.18 312.149 121.317 312.474 174.304C312.93 239.53 266.582 273.705 216.914 277.025C207.02 277.676 196.93 274.421 187.621 273.315C204.806 280.931 224.595 283.86 245.101 280.866C299 272.859 336.755 226.186 329.399 176.518Z" fill="#12CC9B"/>
</g>
<path d="M204.937 204.444C215.722 204.444 224.465 195.263 224.465 183.939C224.465 172.614 215.722 163.433 204.937 163.433C194.151 163.433 185.408 172.614 185.408 183.939C185.408 195.263 194.151 204.444 204.937 204.444Z" fill="#442753"/>
<path d="M199.729 187.193C204.187 187.193 207.801 183.405 207.801 178.731C207.801 174.057 204.187 170.268 199.729 170.268C195.271 170.268 191.657 174.057 191.657 178.731C191.657 183.405 195.271 187.193 199.729 187.193Z" fill="white"/>
<path d="M212.227 196.176C214.852 196.176 216.979 193.962 216.979 191.229C216.979 188.497 214.852 186.282 212.227 186.282C209.603 186.282 207.475 188.497 207.475 191.229C207.475 193.962 209.603 196.176 212.227 196.176Z" fill="white"/>
<path d="M267.624 188.3C267.298 187.519 265.475 183.483 261.179 181.204C253.758 177.234 245.035 181.595 240.609 183.743C237.484 185.306 233.709 187.128 233.514 189.927C233.318 192.922 237.094 194.289 237.419 197.153C237.094 200.082 233.318 201.449 233.514 204.444C233.709 207.243 237.484 209.131 240.609 210.628C244.97 212.776 253.758 217.137 261.179 213.166C265.475 210.888 267.298 206.852 267.624 206.071C268.144 204.834 268.991 200.994 268.991 197.153C268.991 193.312 268.144 189.537 267.624 188.3Z" fill="#00FF6B"/>
<path opacity="0.8" d="M241.65 192.336C241.65 192.336 253.042 189.537 260.268 189.537" stroke="#442753" stroke-width="4" stroke-miterlimit="10" stroke-linecap="round" stroke-linejoin="round"/>
<path opacity="0.8" d="M241.65 198.26C241.65 198.26 252.782 196.697 257.664 198.976" stroke="#442753" stroke-width="4" stroke-miterlimit="10" stroke-linecap="round" stroke-linejoin="round"/>
<path d="M267.624 188.3C267.298 187.519 265.475 183.483 261.179 181.204C253.758 177.234 245.035 181.595 240.609 183.743C237.484 185.306 233.709 187.128 233.514 189.927C233.318 192.922 237.094 194.289 237.419 197.153C237.094 200.082 233.318 201.449 233.514 204.444C233.709 207.243 237.484 209.131 240.609 210.628C244.97 212.776 253.758 217.137 261.179 213.166C265.475 210.888 267.298 206.852 267.624 206.071C268.144 204.834 268.991 200.994 268.991 197.153C268.991 193.312 268.144 189.537 267.624 188.3Z" stroke="#0F7C46" stroke-width="6" stroke-miterlimit="10" stroke-linecap="round" stroke-linejoin="round"/>
<path d="M329.399 176.518C322.044 126.915 272.376 93.1301 218.541 101.137C208.452 102.634 198.948 105.498 190.225 109.404C180.005 114.026 167.897 111.422 160.541 102.96C157.287 99.184 154.227 95.8641 152.6 94.432C147.978 90.3961 142.64 86.2951 136.521 82.7148C133.462 80.8921 130.207 79.1996 126.757 77.7024C123.307 76.2052 119.661 74.8382 115.886 73.7967C114.909 73.5363 113.998 73.2759 113.021 73.0155C112.045 72.8203 111.069 72.5599 110.092 72.3646C109.116 72.1693 108.074 72.0391 107.098 71.8438C106.121 71.6485 105.08 71.5834 104.038 71.4532C99.9373 70.9976 95.7711 70.9325 91.5399 71.3881C87.3087 71.7787 83.0775 72.6901 78.9765 74.1873L78.1953 74.4477L77.8047 74.5779L77.6095 74.6429C77.0887 74.8382 77.4142 74.708 77.284 74.7731L77.2189 74.8382L75.917 75.4241L74.6151 76.0099L73.9641 76.3354C73.7688 76.4656 73.4433 76.5958 73.2481 76.726C72.2065 77.2468 71.2301 77.8326 70.2537 78.3534C69.2772 78.9393 68.431 79.5251 67.5196 80.111C64.0045 82.5846 60.7497 85.3837 57.9506 88.4432C55.1515 91.5678 52.6127 94.8877 50.4646 98.2727C48.3164 101.723 46.4287 105.303 44.8664 109.013L44.606 109.729L44.3456 110.446L43.8248 111.747C43.6946 112.138 43.4994 112.659 43.3041 113.18L42.8484 114.612C42.5229 115.588 42.3276 116.499 42.0022 117.476C41.7418 118.452 41.5465 119.364 41.2861 120.34C39.5936 127.956 39.3332 135.442 39.9842 142.473C40.7002 149.438 42.2625 155.947 44.2805 161.611C46.2985 167.339 48.7721 172.286 51.2457 176.518C53.7194 180.749 56.193 184.199 58.3412 186.933C59.3827 188.3 60.4242 189.472 61.2705 190.513C61.7261 191.034 62.1167 191.49 62.5073 191.88C60.8148 196.502 58.6015 205.615 64.3951 211.344C69.7329 216.682 71.4254 196.567 82.9473 194.744C86.5927 194.158 87.504 189.341 83.7936 185.631C80.669 182.506 73.2481 181.986 66.6734 186.607C66.6083 186.477 66.4781 186.412 66.413 186.282C65.6319 185.305 64.7205 184.134 63.8092 182.832C61.9214 180.228 59.7082 176.908 57.56 172.937C55.4119 168.966 53.3288 164.345 51.7014 159.072C50.0089 153.799 48.8372 147.941 48.4466 141.757C48.0561 135.507 48.5768 128.933 50.2693 122.423C50.5297 121.642 50.725 120.796 50.9854 120.015C51.2457 119.233 51.5061 118.387 51.7665 117.606L52.2222 116.434C52.3524 116.044 52.4826 115.653 52.6778 115.263L53.1986 113.961L53.459 113.44L53.7194 112.854C55.1515 109.729 56.9091 106.67 58.8619 103.741C60.8148 100.811 63.0931 98.0774 65.5017 95.6037C67.9753 93.1301 70.6442 90.9168 73.5084 89.0942C74.2245 88.6385 74.9405 88.1828 75.6566 87.7923C76.3726 87.4668 77.0236 87.0762 77.7397 86.7507C77.935 86.6856 78.0651 86.5554 78.2604 86.4903L78.9114 86.23L80.2784 85.7092L81.5803 85.1884L81.7105 85.1233L82.036 85.0582L82.6218 84.863C85.8115 83.8214 89.1314 83.2356 92.4513 83.0403C95.7711 82.845 99.1561 82.9752 102.476 83.4959C103.322 83.6261 104.103 83.7563 104.95 83.8865C105.796 84.0818 106.577 84.212 107.423 84.4073C108.204 84.6026 109.051 84.7978 109.832 85.0582C110.613 85.2535 111.394 85.5139 112.175 85.7743C115.3 86.8158 118.359 88.0526 121.224 89.4196C124.088 90.8518 126.822 92.349 129.426 94.0414C134.633 97.3613 139.125 101.072 143.096 104.782C144.332 105.889 146.481 108.493 148.954 111.552C156.115 120.47 156.505 132.969 149.866 142.277C136.977 160.374 130.793 182.637 134.178 205.485C141.533 255.088 191.201 288.873 245.035 280.866C298.87 272.859 336.755 226.186 329.399 176.518Z" stroke="#0A8E6B" stroke-width="6" stroke-miterlimit="10" stroke-linecap="round" stroke-linejoin="round"/>
<path d="M168.353 236.731C164.317 238.293 160.216 239.53 156.18 240.376C148.238 232.63 143.551 220.913 144.398 208.089C144.983 199.822 147.717 192.336 152.014 186.282C151.493 188.756 151.102 191.359 150.972 193.963C149.735 210.888 156.701 226.511 168.353 236.731Z" fill="white"/>
<path d="M168.353 236.731C164.317 238.293 160.216 239.53 156.18 240.376C148.238 232.63 143.551 220.913 144.398 208.089C144.983 199.822 147.717 192.336 152.014 186.282C151.493 188.756 151.102 191.359 150.972 193.963C149.735 210.888 156.701 226.511 168.353 236.731Z" stroke="white" stroke-width="3" stroke-miterlimit="10" stroke-linecap="round" stroke-linejoin="round"/>
<path d="M180.265 231.003C178.117 232.239 175.904 233.411 173.626 234.453C173.105 234.713 172.519 234.973 171.998 235.169C168.092 229.701 165.684 222.735 165.684 215.119C165.684 208.414 167.507 202.23 170.631 197.153C170.371 199.171 170.175 201.254 170.175 203.402C170.175 214.013 174.016 223.712 180.265 231.003Z" fill="white"/>
<path d="M180.265 231.003C178.117 232.239 175.904 233.411 173.626 234.453C173.105 234.713 172.519 234.973 171.998 235.169C168.092 229.701 165.684 222.735 165.684 215.119C165.684 208.414 167.507 202.23 170.631 197.153C170.371 199.171 170.175 201.254 170.175 203.402C170.175 214.013 174.016 223.712 180.265 231.003Z" stroke="white" stroke-width="3" stroke-miterlimit="10" stroke-linecap="round" stroke-linejoin="round"/>
<path opacity="0.3" d="M221.796 217.984C221.796 217.984 221.796 231.719 209.103 239.53" stroke="#212121" stroke-width="6" stroke-miterlimit="10" stroke-linecap="round" stroke-linejoin="round"/>
<path opacity="0.3" d="M232.667 223.386C232.667 223.386 237.615 233.281 232.342 244.152" stroke="#212121" stroke-width="6" stroke-miterlimit="10" stroke-linecap="round" stroke-linejoin="round"/>
<path d="M187.816 226.12C183.52 229.31 178.768 232.174 173.626 234.518C165.879 238.098 157.937 240.376 150.126 241.418" stroke="#0A8E6B" stroke-width="6" stroke-miterlimit="10" stroke-linecap="round" stroke-linejoin="round"/>
<path opacity="0.8" d="M241.65 203.402C241.65 203.402 250.373 204.248 252.196 206.071" stroke="#442753" stroke-width="4" stroke-miterlimit="10" stroke-linecap="round" stroke-linejoin="round"/>
<path d="M338.968 24.6495C338.968 24.6495 334.021 42.8763 352.769 42.8763C371.516 42.8763 359.799 16.838 338.968 24.6495Z" fill="#00FF6B" fill-opacity="0.59"/>
<defs>
<radialGradient id="paint0_radial" cx="0" cy="0" r="1" gradientUnits="userSpaceOnUse" gradientTransform="translate(84.3255 213.318) scale(46.4697)">
<stop stop-color="#FFFF00"/>
<stop offset="1" stop-color="#FFFF00" stop-opacity="0"/>
</radialGradient>
</defs>
</svg>
