<svg width="358" height="410" viewBox="0 0 358 410" fill="none" xmlns="http://www.w3.org/2000/svg">
<path d="M178.583 358.327C277.211 358.327 357.165 278.372 357.165 179.744C357.165 81.1154 277.211 1.16116 178.583 1.16116C79.9542 1.16116 0 81.1154 0 179.744C0 278.372 79.9542 358.327 178.583 358.327Z" fill="#00FF73" fill-opacity="0.18"/>
<path opacity="0.86" d="M178.583 317.104C253.937 317.104 315.024 255.584 315.024 179.696C315.024 103.807 253.937 42.287 178.583 42.287C103.229 42.287 42.1418 103.807 42.1418 179.696C42.1418 255.584 103.229 317.104 178.583 317.104Z" fill="#19DB79" fill-opacity="0.29"/>
<path opacity="0.61" d="M178.583 282.026C234.965 282.026 280.672 236.319 280.672 179.937C280.672 123.555 234.965 77.8487 178.583 77.8487C122.201 77.8487 76.494 123.555 76.494 179.937C76.494 236.319 122.201 282.026 178.583 282.026Z" fill="url(#paint0_radial)"/>
<path opacity="0.89" d="M178.583 252.174C218.478 252.174 250.819 219.832 250.819 179.938C250.819 140.043 218.478 107.701 178.583 107.701C138.688 107.701 106.346 140.043 106.346 179.938C106.346 219.832 138.688 252.174 178.583 252.174Z" fill="url(#paint1_radial)"/>
<path d="M235.627 201.226L220.047 103.347C218.596 94.3958 208.339 87.5253 197.017 87.5253H161.165C149.843 87.5253 139.586 94.3474 138.134 103.347L122.555 201.226C119.604 219.902 131.748 236.546 150.085 236.546H208.097C226.386 236.546 238.578 219.902 235.627 201.226ZM220.773 220.773C218.547 223.386 214.532 226.869 208.097 226.869H150.037C143.602 226.869 139.586 223.24 137.36 220.628C133.586 216.177 131.99 209.645 133.054 203.161L148.634 105.621C149.069 102.814 154.149 99.1373 161.116 99.1373H196.968C203.936 99.1373 209.016 102.718 209.451 105.524L225.031 203.161C226.144 209.693 224.547 216.322 220.773 220.773Z" stroke="#225C3F" stroke-width="6" stroke-miterlimit="10" stroke-linecap="round" stroke-linejoin="round"/>
<path d="M235.627 201.226L220.047 103.347C218.596 94.3958 208.339 87.5253 197.017 87.5253H161.165C149.843 87.5253 139.586 94.3474 138.134 103.347L122.555 201.226C119.604 219.902 131.748 236.546 150.085 236.546H208.097C226.386 236.546 238.578 219.902 235.627 201.226ZM220.773 220.773C218.547 223.386 214.532 226.869 208.097 226.869H150.037C143.602 226.869 139.586 223.24 137.36 220.628C133.586 216.176 131.99 209.645 133.054 203.161L148.634 105.621C149.069 102.814 154.149 99.1373 161.116 99.1373H196.968C203.936 99.1373 209.016 102.718 209.451 105.524L225.031 203.161C226.144 209.693 224.547 216.322 220.773 220.773Z" fill="#1C6F45"/>
<path d="M235.627 201.226L220.047 103.347C218.596 94.3958 208.339 87.5253 197.017 87.5253H161.165C149.843 87.5253 139.586 94.3474 138.134 103.347L122.555 201.226C119.604 219.902 131.748 236.546 150.085 236.546H208.097C226.386 236.546 238.578 219.902 235.627 201.226ZM220.773 220.773C218.547 223.386 214.532 226.869 208.097 226.869H150.037C143.602 226.869 139.586 223.24 137.36 220.628C133.586 216.176 131.99 209.645 133.054 203.161L148.634 105.621C149.069 102.814 154.149 99.1373 161.116 99.1373H196.968C203.936 99.1373 209.016 102.718 209.451 105.524L225.031 203.161C226.144 209.693 224.547 216.322 220.773 220.773Z" fill="#1C6F45"/>
<path opacity="0.59" d="M133.054 203.161L144.618 130.925C141.57 128.554 138.279 126.522 134.699 124.974L122.555 201.274C121.829 205.871 122.023 210.37 122.99 214.531C126.571 214.048 129.958 213.128 133.199 211.87C132.619 209.064 132.57 206.113 133.054 203.161Z" fill="#C8A82F"/>
<path opacity="0.59" d="M225.079 203.161C225.466 205.677 225.466 208.242 225.127 210.661C228.321 212.161 231.708 213.322 235.24 214.048C236.11 210.032 236.304 205.726 235.578 201.274L223.628 126.28C220.096 128.119 216.806 130.441 213.854 133.102L225.079 203.161Z" fill="#C8A82F"/>
<path d="M208.097 236.546H150.037C131.748 236.546 119.555 219.902 122.507 201.226L138.086 103.347C139.537 94.3958 149.795 87.5253 161.116 87.5253H196.968C208.29 87.5253 218.547 94.3474 219.999 103.347L235.578 201.226C238.578 219.902 226.385 236.546 208.097 236.546Z" stroke="#225C3F" stroke-width="6" stroke-miterlimit="10" stroke-linecap="round" stroke-linejoin="round"/>
<path d="M235.627 201.226L220.047 103.347C218.596 94.3958 208.339 87.5253 197.017 87.5253H161.165C149.843 87.5253 139.586 94.3474 138.134 103.347L122.555 201.226C119.604 219.902 131.748 236.546 150.085 236.546H208.097C226.386 236.546 238.578 219.902 235.627 201.226ZM225.176 223.918C220.87 228.95 214.822 231.708 208.048 231.708H150.037C143.263 231.708 137.215 228.95 132.909 223.918C128.022 218.209 125.99 210.177 127.297 202L142.876 104.121C143.892 97.6374 152.069 92.3637 161.116 92.3637H196.968C205.968 92.3637 214.145 97.6374 215.209 104.121L230.837 202C232.143 210.225 230.063 218.209 225.176 223.918Z" fill="#00FF73"/>
<path d="M235.627 201.226L220.047 103.347C218.596 94.3958 208.339 87.5253 197.017 87.5253H161.165C149.843 87.5253 139.586 94.3474 138.134 103.347L122.555 201.226C119.604 219.902 131.748 236.546 150.085 236.546H208.097C226.386 236.546 238.578 219.902 235.627 201.226Z" stroke="#225C3F" stroke-width="6" stroke-miterlimit="10" stroke-linecap="round" stroke-linejoin="round"/>
<path d="M192.953 130.925C183.179 130.925 173.406 130.925 163.681 130.925C155.988 139.779 149.214 151.488 146.214 165.471C142.682 181.341 145.053 199.097 152.456 212.79C155.214 217.918 161.068 221.257 166.874 221.257C174.76 221.257 182.695 221.257 190.582 221.257C196.485 221.257 202.484 217.822 205.145 212.596C211.919 199.291 214.386 181.728 209.79 163.294C206.451 149.359 200.017 138.376 192.953 130.925Z" fill="#DFC19F"/>
<path d="M178.776 207.516C194.007 207.516 206.355 195.169 206.355 179.937C206.355 164.706 194.007 152.359 178.776 152.359C163.545 152.359 151.198 164.706 151.198 179.937C151.198 195.169 163.545 207.516 178.776 207.516Z" fill="url(#paint2_radial)"/>
<path d="M172.003 149.304C174.233 141.466 173.229 134.311 169.759 133.323C166.29 132.336 161.669 137.89 159.438 145.729C157.207 153.567 158.212 160.722 161.681 161.71C165.151 162.697 169.772 157.143 172.003 149.304Z" fill="#ECDBC9"/>
<path d="M192.953 131.409C183.179 131.409 173.406 131.409 163.681 131.409C155.988 140.263 149.214 151.778 146.214 165.713C142.682 181.583 145.053 199.484 152.456 213.177C155.214 218.305 161.068 221.741 166.874 221.741C174.76 221.741 182.695 221.741 190.582 221.741C196.485 221.741 202.484 218.064 205.145 212.838C211.919 199.533 214.386 182.066 209.79 163.681C206.451 149.698 200.017 138.86 192.953 131.409Z" stroke="#225C3F" stroke-width="4" stroke-miterlimit="10" stroke-linecap="round" stroke-linejoin="round"/>
<path d="M208.097 243.803H149.069V234.369C149.069 231.175 151.682 228.563 154.875 228.563H202.291C205.484 228.563 208.097 231.175 208.097 234.369V243.803Z" fill="#00FF73"/>
<path d="M199.533 240.513H157.584V237.514C157.584 234.32 160.197 231.708 163.39 231.708H193.727C196.92 231.708 199.533 234.32 199.533 237.514V240.513Z" fill="#19DB79"/>
<path opacity="0.59" d="M202.291 228.563H154.875C151.682 228.563 149.069 230.595 149.069 233.062V236.207C149.069 233.74 151.682 231.708 154.875 231.708H202.291C205.484 231.708 208.097 233.74 208.097 236.207V233.062C208.097 230.595 205.484 228.563 202.291 228.563Z" fill="#C8A82F"/>
<path d="M208.097 243.803H149.069V234.369C149.069 231.175 151.682 228.563 154.875 228.563H202.291C205.484 228.563 208.097 231.175 208.097 234.369V243.803Z" stroke="#225C3F" stroke-width="6" stroke-miterlimit="10" stroke-linecap="round" stroke-linejoin="round"/>
<path d="M222.515 257.351H134.457V255.415C134.457 248.98 139.683 243.803 146.069 243.803H210.854C217.289 243.803 222.466 249.029 222.466 255.415V257.351H222.515Z" fill="#19DB79"/>
<path d="M134.747 252.754C134.554 253.625 134.457 254.496 134.457 255.415V257.351H222.515V255.415C222.515 254.496 222.418 253.577 222.224 252.754H134.747Z" fill="#00FF73"/>
<path opacity="0.59" d="M210.903 243.803H146.069C139.634 243.803 134.457 249.029 134.457 255.415V257.351H134.554C135.183 251.545 140.118 247.045 146.118 247.045H210.903C216.902 247.045 221.789 251.545 222.466 257.351H222.563V255.415C222.515 249.029 217.289 243.803 210.903 243.803Z" fill="#C8A82F"/>
<path opacity="0.3" d="M300.992 410H55.9795L134.457 257.351H222.515L300.992 410Z" fill="url(#paint3_linear)"/>
<path opacity="0.3" d="M272.93 410H84.0417L134.457 257.351H222.515L272.93 410Z" fill="url(#paint4_linear)"/>
<path opacity="0.3" d="M240.32 410H116.652L134.457 257.351H222.515L240.32 410Z" fill="url(#paint5_linear)"/>
<path d="M222.515 257.351H134.457V255.415C134.457 248.98 139.683 243.803 146.069 243.803H210.854C217.289 243.803 222.466 249.029 222.466 255.415V257.351H222.515Z" stroke="#225C3F" stroke-width="6" stroke-miterlimit="10" stroke-linecap="round" stroke-linejoin="round"/>
<path d="M200.017 135.812C185.502 135.812 170.987 135.812 156.472 135.812C156.907 132.667 158.939 129.28 161.649 126.135C172.728 126.135 183.808 126.135 194.888 126.135C197.597 129.28 199.581 132.667 200.017 135.812Z" fill="#00FF73"/>
<path d="M183.082 135.812H173.406C169.632 135.812 167.068 132.038 168.374 128.506C168.664 127.732 169.003 126.909 169.342 126.135C177.712 126.135 178.68 126.135 187.05 126.135C187.389 126.909 187.727 127.683 188.018 128.506C189.469 131.989 186.856 135.812 183.082 135.812Z" fill="#19DB79"/>
<path d="M202.533 109.782H153.665L158.068 105.572H198.13L202.533 109.782Z" fill="#00FF73"/>
<path d="M200.017 135.812C185.502 135.812 170.987 135.812 156.472 135.812C156.907 132.667 158.939 129.28 161.649 126.135C172.728 126.135 183.808 126.135 194.888 126.135C197.597 129.28 199.581 132.667 200.017 135.812Z" stroke="#225C3F" stroke-width="6" stroke-miterlimit="10" stroke-linecap="round" stroke-linejoin="round"/>
<path d="M192.953 110.265H163.536L161.987 114.136C161.745 114.717 161.649 115.297 161.649 115.878V126.232H195.033V115.975C195.033 115.297 194.888 114.668 194.646 114.088L192.953 110.265Z" fill="#00FF73"/>
<path d="M181.341 110.265H175.293C173.019 110.265 171.035 111.911 170.599 114.136C170.503 114.717 170.454 115.297 170.454 115.878V120.087C170.454 123.474 173.212 126.184 176.551 126.184H180.034C183.421 126.184 186.131 123.426 186.131 120.087V115.926C186.131 115.249 186.082 114.62 185.937 114.039C185.55 111.862 183.615 110.265 181.341 110.265Z" fill="#19DB79"/>
<path d="M192.953 110.265H163.536L161.987 114.136C161.745 114.717 161.649 115.297 161.649 115.878V126.232H195.033V115.975C195.033 115.297 194.888 114.668 194.646 114.088L192.953 110.265Z" stroke="#225C3F" stroke-width="6" stroke-miterlimit="10" stroke-linecap="round" stroke-linejoin="round"/>
<path d="M202.533 109.782H153.665L158.068 105.572H198.13L202.533 109.782Z" stroke="#225C3F" stroke-width="6" stroke-miterlimit="10" stroke-linecap="round" stroke-linejoin="round"/>
<path d="M194.985 80.1228H160.778L158.068 105.572H197.694L194.985 80.1228Z" fill="#00FF73"/>
<path d="M188.211 80.1228H167.551L166.535 96.0893C166.197 101.218 170.261 105.572 175.389 105.572H180.373C185.501 105.572 189.566 101.218 189.227 96.0893L188.211 80.1228Z" fill="#19DB79"/>
<path d="M194.985 80.1228H160.778L158.068 105.572H197.694L194.985 80.1228Z" stroke="#225C3F" stroke-width="6" stroke-miterlimit="10" stroke-linecap="round" stroke-linejoin="round"/>
<path d="M193.485 76.3972C190.63 76.3972 187.872 75.1876 185.937 73.0587C184.002 70.9299 181.195 69.6235 178.099 69.6235C175.002 69.6235 172.196 70.9299 170.261 73.0587C168.326 75.1876 165.568 76.3972 162.713 76.3972H155.843V80.2678H200.355V76.3972H193.485Z" fill="#00FF73"/>
<path d="M193.485 76.3972C190.63 76.3972 187.872 75.1876 185.937 73.0587C184.002 70.9299 181.195 69.6235 178.099 69.6235C175.002 69.6235 172.196 70.9299 170.261 73.0587C168.326 75.1876 165.568 76.3972 162.713 76.3972H155.843V80.2678H200.355V76.3972H193.485Z" stroke="#225C3F" stroke-width="6" stroke-miterlimit="10" stroke-linecap="round" stroke-linejoin="round"/>
<path d="M170.212 120.232C171.495 120.232 172.535 119.193 172.535 117.91C172.535 116.627 171.495 115.588 170.212 115.588C168.93 115.588 167.89 116.627 167.89 117.91C167.89 119.193 168.93 120.232 170.212 120.232Z" fill="#308B5D"/>
<path d="M178.196 120.232C179.478 120.232 180.518 119.193 180.518 117.91C180.518 116.627 179.478 115.588 178.196 115.588C176.913 115.588 175.873 116.627 175.873 117.91C175.873 119.193 176.913 120.232 178.196 120.232Z" fill="#308B5D"/>
<path d="M186.179 120.232C187.462 120.232 188.501 119.193 188.501 117.91C188.501 116.627 187.462 115.588 186.179 115.588C184.896 115.588 183.857 116.627 183.857 117.91C183.857 119.193 184.896 120.232 186.179 120.232Z" fill="#308B5D"/>
<path d="M180.276 173.89C179.502 176.018 178.147 179.115 175.68 182.357C171.519 187.824 168.616 187.969 166.971 191.791C165.084 196.194 165.955 203.161 170.793 207.177C175.777 211.29 182.55 210.322 186.808 208C194.646 203.645 194.791 193.969 194.791 193.001C194.791 184.969 189.034 177.373 180.276 173.89Z" fill="#FBAF41"/>
<path d="M181.728 179.696C180.712 181.582 179.067 184.292 176.406 186.953C172.293 191.066 169.825 190.969 168.18 193.969C166.148 197.646 166.535 203.79 170.406 207.419C174.809 211.483 181.292 210.225 185.018 208.145C192.42 204.032 192.324 194.839 192.324 194.452C192.13 188.163 187.969 182.405 181.728 179.696Z" fill="#CC8127"/>
<path d="M180.276 173.89C179.502 176.018 178.147 179.115 175.68 182.357C171.519 187.824 168.616 187.969 166.971 191.791C165.084 196.194 165.955 203.161 170.793 207.177C175.777 211.29 182.55 210.322 186.808 208C194.646 203.645 194.791 193.969 194.791 193.001C194.791 184.969 189.034 177.373 180.276 173.89Z" stroke="#225C3F" stroke-width="4" stroke-miterlimit="10" stroke-linecap="round" stroke-linejoin="round"/>
<path d="M191.066 221.063C189.179 210.903 184.195 203.839 178.389 203.839C172.535 203.839 167.6 210.903 165.713 221.063H191.066Z" fill="#19DB79"/>
<path d="M178.389 208C183.228 208 187.534 211.629 190.243 217.386C187.921 209.258 183.518 203.887 178.389 203.887C173.309 203.887 168.858 209.258 166.535 217.386C169.245 211.629 173.551 208 178.389 208Z" fill="#C8A82F"/>
<path d="M191.066 221.063C189.179 210.903 184.195 203.839 178.389 203.839C172.535 203.839 167.6 210.903 165.713 221.063H191.066Z" stroke="#225C3F" stroke-width="4" stroke-miterlimit="10" stroke-linecap="round" stroke-linejoin="round"/>
<path d="M194.065 216.806H163.1V221.257H194.065V216.806Z" fill="#00FF73"/>
<path d="M194.065 216.806H163.1V221.257H194.065V216.806Z" stroke="#225C3F" stroke-width="4" stroke-miterlimit="10" stroke-linecap="round" stroke-linejoin="round"/>
<path d="M219.467 102.04C222.139 102.04 224.305 99.8741 224.305 97.202C224.305 94.5299 222.139 92.3637 219.467 92.3637C216.794 92.3637 214.628 94.5299 214.628 97.202C214.628 99.8741 216.794 102.04 219.467 102.04Z" fill="#308B5D"/>
<path d="M138.667 102.04C141.339 102.04 143.505 99.8741 143.505 97.202C143.505 94.5299 141.339 92.3637 138.667 92.3637C135.994 92.3637 133.828 94.5299 133.828 97.202C133.828 99.8741 135.994 102.04 138.667 102.04Z" fill="#308B5D"/>
<path d="M215.983 104.121L217.144 96.4279C217.193 96.4279 217.241 96.4279 217.338 96.4279C221.934 96.4279 225.66 92.7508 225.66 88.2027C225.66 84.4288 223.096 81.2839 219.66 80.3163L226.869 32.9006C229.143 18.047 217.531 4.64478 202.339 4.64478H178.099H153.859C138.667 4.64478 127.055 17.9986 129.329 32.9006L136.538 80.3163C133.199 80.9936 130.538 84.4772 130.538 88.2027C130.538 92.7508 134.264 96.4279 138.86 96.4279C138.909 96.4279 138.957 96.4279 139.054 96.4279L140.215 104.121" stroke="#225C3F" stroke-width="8" stroke-miterlimit="10" stroke-linecap="round" stroke-linejoin="round"/>
<path d="M184.728 8.41869H171.035C169.68 8.41869 168.568 7.30587 168.568 5.95114V2.46754C168.568 1.11281 169.68 0 171.035 0H184.728C186.082 0 187.195 1.11281 187.195 2.46754V5.95114C187.195 7.30587 186.082 8.41869 184.728 8.41869Z" fill="#308B5D"/>
<path d="M200.742 228.563H156.423L163.148 220.337H194.065L200.742 228.563Z" fill="#19DB79"/>
<path opacity="0.59" d="M161.455 222.418C165.519 224.692 171.712 226.143 178.631 226.143C185.55 226.143 191.743 224.692 195.807 222.418L194.065 220.337H163.148L161.455 222.418Z" fill="#C8A82F"/>
<path d="M200.742 228.563H156.423L163.148 220.337H194.065L200.742 228.563Z" stroke="#225C3F" stroke-width="4" stroke-miterlimit="10" stroke-linecap="round" stroke-linejoin="round"/>
<path d="M225.176 223.918C220.87 228.95 214.822 231.708 208.048 231.708H150.037C143.263 231.708 137.215 228.95 132.909 223.918C128.022 218.209 125.99 210.177 127.296 202L142.876 104.121C143.892 97.6374 152.069 92.3637 161.116 92.3637H196.968C205.968 92.3637 214.144 97.6374 215.209 104.121L230.837 202C232.143 210.225 230.063 218.209 225.176 223.918Z" stroke="#225C3F" stroke-width="4" stroke-miterlimit="10" stroke-linecap="round" stroke-linejoin="round"/>
<path d="M184.437 79.784H170.648C170.406 79.784 170.164 79.5905 170.164 79.3002C170.164 76.881 172.099 74.9457 174.519 74.9457H180.566C182.986 74.9457 184.921 76.881 184.921 79.3002C184.921 79.5905 184.727 79.784 184.437 79.784Z" fill="#308B5D"/>
<path d="M180.228 188.163C180.373 189.082 180.47 190.291 180.325 191.646C180.228 193.146 179.889 194.452 179.55 195.42C179.067 193.34 177.712 191.501 177.518 191.598C177.518 191.598 177.518 191.598 177.518 191.646C177.422 192.082 175.148 194.936 174.712 195.565C173.551 197.307 173.309 201.033 175.341 202.968C177.083 204.613 179.986 204.516 181.921 203.548C185.163 201.903 185.792 197.597 185.26 194.743C184.437 190.582 180.857 188.501 180.228 188.163Z" fill="#FBAF41"/>
<path d="M180.228 188.163C180.373 189.082 180.47 190.291 180.325 191.646C180.228 193.146 179.889 194.452 179.55 195.42C179.067 193.34 177.712 191.501 177.518 191.598C177.518 191.598 177.518 191.598 177.518 191.646C177.422 192.082 175.148 194.936 174.712 195.565C173.551 197.307 173.309 201.033 175.341 202.968C177.083 204.613 179.986 204.516 181.921 203.548C185.163 201.903 185.792 197.597 185.26 194.743C184.437 190.582 180.857 188.501 180.228 188.163Z" stroke="#225C3F" stroke-width="4" stroke-miterlimit="10" stroke-linecap="round" stroke-linejoin="round"/>
<defs>
<radialGradient id="paint0_radial" cx="0" cy="0" r="1" gradientUnits="userSpaceOnUse" gradientTransform="translate(178.583 179.937) scale(258.515)">
<stop stop-color="#F29543"/>
<stop offset="0.1095" stop-color="#F09543" stop-opacity="0.8014"/>
<stop offset="0.1711" stop-color="#E79645" stop-opacity="0.6898"/>
<stop offset="0.2208" stop-color="#DA9747" stop-opacity="0.5997"/>
<stop offset="0.2641" stop-color="#C6994A" stop-opacity="0.5211"/>
<stop offset="0.3033" stop-color="#AC9B4E" stop-opacity="0.45"/>
<stop offset="0.3396" stop-color="#8D9E53" stop-opacity="0.3844"/>
<stop offset="0.3735" stop-color="#68A259" stop-opacity="0.3228"/>
<stop offset="0.4057" stop-color="#3CA661" stop-opacity="0.2645"/>
<stop offset="0.4353" stop-color="#0DAA68" stop-opacity="0.2108"/>
<stop offset="0.4413" stop-color="#02AB6A" stop-opacity="0.2"/>
</radialGradient>
<radialGradient id="paint1_radial" cx="0" cy="0" r="1" gradientUnits="userSpaceOnUse" gradientTransform="translate(178.583 179.938) scale(72.2363)">
<stop stop-color="#F29543"/>
<stop offset="0.1302" stop-color="#EB9847" stop-opacity="0.8637"/>
<stop offset="0.3179" stop-color="#D8A151" stop-opacity="0.667"/>
<stop offset="0.5405" stop-color="#B9AF61" stop-opacity="0.4339"/>
<stop offset="0.7638" stop-color="#92C176" stop-opacity="0.2"/>
</radialGradient>
<radialGradient id="paint2_radial" cx="0" cy="0" r="1" gradientUnits="userSpaceOnUse" gradientTransform="translate(178.776 179.937) scale(27.5785)">
<stop offset="0.1237" stop-color="#F2CA91"/>
<stop offset="1" stop-color="#F2CA91" stop-opacity="0.3"/>
</radialGradient>
<linearGradient id="paint3_linear" x1="178.486" y1="257.351" x2="178.486" y2="410" gradientUnits="userSpaceOnUse">
<stop stop-color="#19DB79"/>
<stop offset="1" stop-color="#151721" stop-opacity="0"/>
</linearGradient>
<linearGradient id="paint4_linear" x1="178.486" y1="257.351" x2="178.486" y2="410" gradientUnits="userSpaceOnUse">
<stop stop-color="#225037"/>
<stop offset="1" stop-color="#19DB79"/>
</linearGradient>
<linearGradient id="paint5_linear" x1="178.486" y1="257.351" x2="178.486" y2="410" gradientUnits="userSpaceOnUse">
<stop stop-color="#225037"/>
<stop offset="1" stop-color="#19DB79"/>
</linearGradient>
</defs>
</svg>
