<svg width="50" height="45" viewBox="0 0 50 45" fill="none" xmlns="http://www.w3.org/2000/svg">
<path d="M44.7482 10.7143H37.9933L34.0938 6.42857H21.3087V10.7143H32.2187L36.1182 15H44.7482V40.7143H10.6543V21.4286H6.3926V40.7143C6.3926 43.0714 8.31037 45 10.6543 45H44.7482C47.0921 45 49.0099 43.0714 49.0099 40.7143V15C49.0099 12.6429 47.0921 10.7143 44.7482 10.7143ZM17.0469 27.8571C17.0469 33.7714 21.8201 38.5714 27.7012 38.5714C33.5824 38.5714 38.3556 33.7714 38.3556 27.8571C38.3556 21.9429 33.5824 17.1429 27.7012 17.1429C21.8201 17.1429 17.0469 21.9429 17.0469 27.8571ZM27.7012 21.4286C31.2172 21.4286 34.0938 24.3214 34.0938 27.8571C34.0938 31.3929 31.2172 34.2857 27.7012 34.2857C24.1853 34.2857 21.3087 31.3929 21.3087 27.8571C21.3087 24.3214 24.1853 21.4286 27.7012 21.4286ZM10.6543 10.7143H17.0469V6.42857H10.6543V0H6.3926V6.42857H0V10.7143H6.3926V17.1429H10.6543V10.7143Z" fill="#00FF6B"/>
</svg>
