<svg width="160" height="41" viewBox="0 0 160 41" fill="none" xmlns="http://www.w3.org/2000/svg">
<path d="M16.6 15.68C18.1733 15.9733 19.4667 16.76 20.48 18.04C21.4933 19.32 22 20.7867 22 22.44C22 23.9333 21.6267 25.2533 20.88 26.4C20.16 27.52 19.1067 28.4 17.72 29.04C16.3333 29.68 14.6933 30 12.8 30H0.76V2.08H12.28C14.1733 2.08 15.8 2.38667 17.16 3C18.5467 3.61333 19.5867 4.46667 20.28 5.56C21 6.65333 21.36 7.89333 21.36 9.28C21.36 10.9067 20.92 12.2667 20.04 13.36C19.1867 14.4533 18.04 15.2267 16.6 15.68ZM6.36 13.6H11.48C12.8133 13.6 13.84 13.3067 14.56 12.72C15.28 12.1067 15.64 11.24 15.64 10.12C15.64 9 15.28 8.13333 14.56 7.52C13.84 6.90667 12.8133 6.6 11.48 6.6H6.36V13.6ZM12 25.44C13.36 25.44 14.4133 25.12 15.16 24.48C15.9333 23.84 16.32 22.9333 16.32 21.76C16.32 20.56 15.92 19.6267 15.12 18.96C14.32 18.2667 13.24 17.92 11.88 17.92H6.36V25.44H12ZM32.0631 0.4V30H26.4631V0.4H32.0631ZM47.4359 30.36C45.3026 30.36 43.3826 29.8933 41.6759 28.96C39.9693 28 38.6226 26.6533 37.6359 24.92C36.6759 23.1867 36.1959 21.1867 36.1959 18.92C36.1959 16.6533 36.6893 14.6533 37.6759 12.92C38.6893 11.1867 40.0626 9.85333 41.7959 8.92C43.5293 7.96 45.4626 7.48 47.5959 7.48C49.7293 7.48 51.6626 7.96 53.3959 8.92C55.1293 9.85333 56.4893 11.1867 57.4759 12.92C58.4893 14.6533 58.9959 16.6533 58.9959 18.92C58.9959 21.1867 58.4759 23.1867 57.4359 24.92C56.4226 26.6533 55.0359 28 53.2759 28.96C51.5426 29.8933 49.5959 30.36 47.4359 30.36ZM47.4359 25.48C48.4493 25.48 49.3959 25.24 50.2759 24.76C51.1826 24.2533 51.9026 23.5067 52.4359 22.52C52.9693 21.5333 53.2359 20.3333 53.2359 18.92C53.2359 16.8133 52.6759 15.2 51.5559 14.08C50.4626 12.9333 49.1159 12.36 47.5159 12.36C45.9159 12.36 44.5693 12.9333 43.4759 14.08C42.4093 15.2 41.8759 16.8133 41.8759 18.92C41.8759 21.0267 42.3959 22.6533 43.4359 23.8C44.5026 24.92 45.8359 25.48 47.4359 25.48ZM71.7838 7.48C73.4371 7.48 74.8904 7.81333 76.1438 8.48C77.3971 9.12 78.3838 9.96 79.1038 11V7.84H84.7438V30.16C84.7438 32.2133 84.3304 34.04 83.5038 35.64C82.6771 37.2667 81.4371 38.5467 79.7838 39.48C78.1304 40.44 76.1304 40.92 73.7838 40.92C70.6371 40.92 68.0504 40.1867 66.0238 38.72C64.0238 37.2533 62.8904 35.2533 62.6238 32.72H68.1838C68.4771 33.7333 69.1038 34.5333 70.0638 35.12C71.0504 35.7333 72.2371 36.04 73.6238 36.04C75.2504 36.04 76.5704 35.5467 77.5838 34.56C78.5971 33.6 79.1038 32.1333 79.1038 30.16V26.72C78.3838 27.76 77.3838 28.6267 76.1038 29.32C74.8504 30.0133 73.4104 30.36 71.7838 30.36C69.9171 30.36 68.2104 29.88 66.6638 28.92C65.1171 27.96 63.8904 26.6133 62.9837 24.88C62.1037 23.12 61.6637 21.1067 61.6637 18.84C61.6637 16.6 62.1037 14.6133 62.9837 12.88C63.8904 11.1467 65.1038 9.81333 66.6238 8.88C68.1704 7.94667 69.8904 7.48 71.7838 7.48ZM79.1038 18.92C79.1038 17.56 78.8371 16.4 78.3038 15.44C77.7704 14.4533 77.0504 13.7067 76.1438 13.2C75.2371 12.6667 74.2638 12.4 73.2238 12.4C72.1838 12.4 71.2238 12.6533 70.3438 13.16C69.4638 13.6667 68.7438 14.4133 68.1838 15.4C67.6504 16.36 67.3838 17.5067 67.3838 18.84C67.3838 20.1733 67.6504 21.3467 68.1838 22.36C68.7438 23.3467 69.4638 24.1067 70.3438 24.64C71.2504 25.1733 72.2104 25.44 73.2238 25.44C74.2638 25.44 75.2371 25.1867 76.1438 24.68C77.0504 24.1467 77.7704 23.4 78.3038 22.44C78.8371 21.4533 79.1038 20.28 79.1038 18.92ZM98.8931 7.48C100.546 7.48 102 7.81333 103.253 8.48C104.506 9.12 105.493 9.96 106.213 11V7.84H111.853V30.16C111.853 32.2133 111.44 34.04 110.613 35.64C109.786 37.2667 108.546 38.5467 106.893 39.48C105.24 40.44 103.24 40.92 100.893 40.92C97.7465 40.92 95.1598 40.1867 93.1331 38.72C91.1331 37.2533 89.9998 35.2533 89.7331 32.72H95.2931C95.5865 33.7333 96.2131 34.5333 97.1731 35.12C98.1598 35.7333 99.3465 36.04 100.733 36.04C102.36 36.04 103.68 35.5467 104.693 34.56C105.706 33.6 106.213 32.1333 106.213 30.16V26.72C105.493 27.76 104.493 28.6267 103.213 29.32C101.96 30.0133 100.52 30.36 98.8931 30.36C97.0265 30.36 95.3198 29.88 93.7731 28.92C92.2265 27.96 90.9998 26.6133 90.0931 24.88C89.2131 23.12 88.7731 21.1067 88.7731 18.84C88.7731 16.6 89.2131 14.6133 90.0931 12.88C90.9998 11.1467 92.2131 9.81333 93.7331 8.88C95.2798 7.94667 96.9998 7.48 98.8931 7.48ZM106.213 18.92C106.213 17.56 105.946 16.4 105.413 15.44C104.88 14.4533 104.16 13.7067 103.253 13.2C102.346 12.6667 101.373 12.4 100.333 12.4C99.2931 12.4 98.3331 12.6533 97.4531 13.16C96.5731 13.6667 95.8531 14.4133 95.2931 15.4C94.7598 16.36 94.4931 17.5067 94.4931 18.84C94.4931 20.1733 94.7598 21.3467 95.2931 22.36C95.8531 23.3467 96.5731 24.1067 97.4531 24.64C98.3598 25.1733 99.3198 25.44 100.333 25.44C101.373 25.44 102.346 25.1867 103.253 24.68C104.16 24.1467 104.88 23.4 105.413 22.44C105.946 21.4533 106.213 20.28 106.213 18.92ZM122.923 0.4V30H117.323V0.4H122.923ZM149.055 18.44C149.055 19.24 149.002 19.96 148.895 20.6H132.695C132.829 22.2 133.389 23.4533 134.375 24.36C135.362 25.2667 136.575 25.72 138.015 25.72C140.095 25.72 141.575 24.8267 142.455 23.04H148.495C147.855 25.1733 146.629 26.9333 144.815 28.32C143.002 29.68 140.775 30.36 138.135 30.36C136.002 30.36 134.082 29.8933 132.375 28.96C130.695 28 129.375 26.6533 128.415 24.92C127.482 23.1867 127.015 21.1867 127.015 18.92C127.015 16.6267 127.482 14.6133 128.415 12.88C129.349 11.1467 130.655 9.81333 132.335 8.88C134.015 7.94667 135.949 7.48 138.135 7.48C140.242 7.48 142.122 7.93333 143.775 8.84C145.455 9.74667 146.749 11.04 147.655 12.72C148.589 14.3733 149.055 16.28 149.055 18.44ZM143.255 16.84C143.229 15.4 142.709 14.2533 141.695 13.4C140.682 12.52 139.442 12.08 137.975 12.08C136.589 12.08 135.415 12.5067 134.455 13.36C133.522 14.1867 132.949 15.3467 132.735 16.84H143.255Z" fill="#00FF6B"/>
<path d="M155.623 30.28C154.609 30.28 153.769 29.9733 153.103 29.36C152.463 28.72 152.143 27.9333 152.143 27C152.143 26.0667 152.463 25.2933 153.103 24.68C153.769 24.04 154.609 23.72 155.623 23.72C156.609 23.72 157.423 24.04 158.063 24.68C158.703 25.2933 159.023 26.0667 159.023 27C159.023 27.9333 158.703 28.72 158.063 29.36C157.423 29.9733 156.609 30.28 155.623 30.28Z" fill="white"/>
</svg>
